<?xml version="1.0" encoding="UTF-8" standalone="no"?>
<!-- Created with Inkscape (http://www.inkscape.org/) -->

<svg
   version="1.1"
   id="svg1204"
   width="529.94727"
   height="537.27399"
   viewBox="0 0 529.94727 537.27399"
   sodipodi:docname="didier-erin.me.svg"
   inkscape:version="1.1.1 (3bf5ae0d25, 2021-09-20)"
   xmlns:inkscape="http://www.inkscape.org/namespaces/inkscape"
   xmlns:sodipodi="http://sodipodi.sourceforge.net/DTD/sodipodi-0.dtd"
   xmlns="http://www.w3.org/2000/svg"
   xmlns:svg="http://www.w3.org/2000/svg">
  <defs
     id="defs1208" />
  <sodipodi:namedview
     id="namedview1206"
     pagecolor="#ffffff"
     bordercolor="#666666"
     borderopacity="1.0"
     inkscape:pageshadow="2"
     inkscape:pageopacity="0.0"
     inkscape:pagecheckerboard="true"
     showgrid="false"
     showguides="true"
     inkscape:guide-bbox="true"
     inkscape:zoom="1.4189655"
     inkscape:cx="23.256379"
     inkscape:cy="332.6367"
     inkscape:window-width="2560"
     inkscape:window-height="1369"
     inkscape:window-x="-8"
     inkscape:window-y="-8"
     inkscape:window-maximized="1"
     inkscape:current-layer="layer2"
     fit-margin-top="0"
     fit-margin-left="0"
     fit-margin-right="0"
     fit-margin-bottom="0">
    <sodipodi:guide
       position="268.54039,537.28344"
       orientation="0,-1"
       id="guide8604" />
    <sodipodi:guide
       position="-0.052076858,273.04705"
       orientation="1,0"
       id="guide8606" />
    <sodipodi:guide
       position="529.9483,284.60197"
       orientation="1,0"
       id="guide8688" />
    <sodipodi:guide
       position="269.42131,-0.079863914"
       orientation="0,-1"
       id="guide8690" />
  </sodipodi:namedview>
  <g
     inkscape:groupmode="layer"
     id="layer2"
     inkscape:label="principal"
     style="opacity:1"
     transform="translate(-21.635803,-20.534971)">
    <g
       id="g11105">
      <path
         style="display:inline;fill:#0891b2;fill-opacity:1;stroke:#0891b2;stroke-width:2.66358;stroke-opacity:1"
         d="m 112.21352,389.29331 c -0.28183,-0.28183 -0.51243,-50.6913 -0.51243,-112.02104 V 165.76365 l 11.74762,-0.51819 c 17.00914,-0.75028 56.09751,0.0408 65.08444,1.31716 13.78087,1.95724 24.77022,5.44377 38.0421,12.06941 9.68393,4.83444 17.11592,9.97944 24.6216,17.04497 17.72541,16.68595 29.26474,38.01435 34.35108,63.49188 1.77463,8.88913 1.74553,31.99487 -0.0508,40.34509 -5.0904,23.66251 -16.70481,44.35406 -33.95643,60.49483 -14.3291,13.40641 -30.8517,21.88409 -53.22648,27.31026 l -8.03474,1.94852 -38.77676,0.26908 c -21.32722,0.14799 -39.00735,0.0385 -39.28919,-0.24335 z m 83.62916,-27.41691 c 13.29317,-2.74578 29.46207,-11.82235 40.2146,-22.57489 16.09652,-16.09652 24.43094,-36.82124 24.5028,-60.9297 0.0749,-25.11959 -7.90054,-45.14595 -24.57773,-61.71505 -9.34814,-9.28756 -17.47484,-14.39766 -31.52828,-19.8251 -10.29258,-3.975 -14.19523,-4.50682 -36.17439,-4.92949 -10.93706,-0.21033 -21.95742,-0.16054 -24.48967,0.11064 l -4.6041,0.49306 v 85.21729 85.2173 h 25.75267 c 20.22161,0 26.85908,-0.22853 30.9041,-1.06406 z"
         id="path6871" />
      <path
         style="display:inline;fill:#0891b2;fill-opacity:1;stroke:#0891b2;stroke-width:2.66358;stroke-opacity:1"
         d="m 276.335,159.98521 c -4.74147,-0.8608 -10.00654,-3.20685 -14.03465,-6.25369 -3.95515,-2.99165 -10.34599,-10.77838 -13.04659,-15.89623 -1.84228,-3.49127 -1.89046,-3.89681 -1.89046,-15.91548 v -12.33293 l 2.45958,-4.5808 c 3.65623,-6.809507 11.71671,-14.596795 18.66166,-18.029176 l 5.58574,-2.760622 h 10.99655 10.99655 l 5.56871,2.752207 c 11.2044,5.537514 19.50693,16.599421 22.01546,29.332381 1.02992,5.22779 1.02636,6.11361 -0.0448,11.11152 -1.59391,7.43742 -5.90373,15.91334 -10.55082,20.74984 -4.59752,4.78489 -11.48456,9.34408 -16.30478,10.79368 -4.35826,1.31067 -15.70946,1.88306 -20.41221,1.0293 z m 13.52381,-27.07904 c 11.581,-6.05019 8.31571,-21.94782 -4.68167,-22.79353 -7.56272,-0.49209 -12.05725,4.05907 -12.07928,12.2315 -0.0136,5.04779 1.69581,8.16849 5.61532,10.25132 2.93239,1.55827 8.46252,1.71244 11.14563,0.31071 z"
         id="path6947" />
      <path
         style="display:inline;fill:#0891b2;fill-opacity:1;stroke:#0891b2;stroke-width:2.66358;stroke-opacity:1"
         d="m 325.41539,389.91563 c -1.72286,-0.21388 -2.39536,-0.71126 -2.72214,-2.01326 -0.53573,-2.13452 -0.0646,-100.10983 0.48407,-100.65847 0.21737,-0.21737 18.6877,-0.61011 41.04516,-0.87275 l 40.64994,-0.47751 v -9.28444 -9.28443 l -26.54304,-0.46676 c -14.59867,-0.25672 -32.99236,-0.46676 -40.87485,-0.46676 h -14.33181 v -50.74119 -50.74119 h 70.47388 70.47387 v 12.92581 12.92581 l -14.27096,0.46237 c -7.84902,0.25431 -28.25342,0.46321 -45.34309,0.46423 -17.08968,9.9e-4 -36.35547,0.21022 -42.81288,0.4649 l -11.74075,0.46304 v 23.38977 23.38978 l 8.56752,0.46066 c 4.71213,0.25338 18.74524,0.46184 31.18469,0.46326 12.43944,0.001 27.13631,0.20931 32.6597,0.46199 l 10.04253,0.45941 v 35.36571 35.3657 l -23.37142,0.46635 c -12.85429,0.25649 -31.40653,0.46635 -41.22722,0.46635 h -17.8558 v 24.90283 24.90283 l 39.64156,0.46708 c 21.80286,0.25689 47.49058,0.46739 57.08384,0.46777 l 17.44228,6.8e-4 v 13.39004 13.39003 L 395.887,390.31249 c -37.50091,-0.062 -69.21314,-0.24061 -70.47161,-0.39686 z"
         id="path6986" />
      <path
         style="display:inline;fill:#0891b2;fill-opacity:1;stroke:#0891b2;stroke-width:2.66358;stroke-opacity:1"
         d="m 270.67226,556.00194 c -33.48551,-2.29191 -68.24113,-11.61978 -99.42074,-26.68297 -17.31188,-8.36355 -31.43635,-17.27329 -46.86513,-29.5626 C 116.41434,493.40648 94.934485,472.15204 87.965923,463.7181 77.755946,451.36114 64.853375,433.10434 58.331475,421.78615 39.756259,389.55047 26.17412,346.00133 23.535792,310.21889 22.356274,294.22163 23.123158,263.9487 25.029881,251.23937 31.042293,211.1634 42.839439,178.47491 62.98086,146.08171 c 11.461999,-18.4342 23.916333,-34.02223 39.85783,-49.886687 43.01368,-42.805779 98.39192,-68.624351 157.91465,-73.623334 12.78965,-1.074132 40.0182,-0.881619 53.25191,0.376505 35.96301,3.418989 71.29626,14.426297 101.08588,31.491118 51.99637,29.785837 93.92666,78.493738 116.63489,135.487788 14.00596,35.15273 19.96579,70.796 18.23343,109.04661 -4.01837,88.7259 -52.31899,172.38533 -126.36969,218.87954 -8.08386,5.07561 -28.84564,15.58437 -37.74529,19.10511 -36.30485,14.36238 -79.41669,21.49086 -115.17221,19.04358 z m 27.43224,-23.60246 c 37.29495,-2.20817 64.36816,-9.30535 95.54913,-25.04798 24.79802,-12.52001 45.112,-28.0706 64.6551,-49.49423 27.73699,-30.40597 44.05302,-58.4646 56.78293,-97.64941 16.73585,-51.51576 15.47345,-107.39229 -3.55731,-157.45398 -13.06034,-34.35611 -30.56264,-61.787 -55.20492,-86.52123 C 436.57808,96.407614 417.88827,82.786584 393.5966,70.51332 365.11507,56.123148 343.55682,49.540573 314.66586,46.412682 c -11.86327,-1.284381 -47.96473,-1.060481 -59.79002,0.370817 -42.44862,5.137849 -82.36559,22.20604 -117.45178,50.221487 -10.61607,8.476664 -30.34269,28.310874 -38.99725,39.209934 -23.384668,29.44933 -39.048557,62.09154 -46.910918,97.75835 -4.885278,22.16157 -6.157482,36.98692 -5.293822,61.69036 0.791099,22.62801 3.084691,37.45295 9.069806,58.62395 9.074799,32.10005 24.216352,61.57599 45.269314,88.1254 8.47735,10.6906 28.29477,30.64981 38.62472,38.90109 34.9011,27.87804 79.33901,45.65576 125.93338,50.38061 17.43312,1.76778 15.66884,1.73008 32.98521,0.7048 z"
         id="path7025"
         clip-path="none" />
      <path
         style="display:inline;fill:#0891b2;fill-opacity:1;stroke:#0891b2;stroke-width:2.66358;stroke-opacity:1"
         d="m 273.21622,476.04005 c -8.57976,-2.38399 -18.00243,-10.42118 -22.52772,-19.2153 -3.41593,-6.63827 -4.63178,-11.53203 -4.59686,-18.50217 0.049,-9.7753 4.13506,-19.15248 11.60997,-26.64379 15.02013,-15.05306 39.51028,-14.82203 54.81051,0.51706 7.53979,7.55894 11.4687,17.09199 11.41639,27.70056 -0.0341,6.91669 -2.38011,13.90736 -6.87472,20.48545 -4.18981,6.132 -9.07549,10.38713 -15.75826,13.72449 -5.26843,2.63103 -5.37128,2.65055 -14.81922,2.81201 -6.67349,0.11405 -10.63242,-0.14818 -13.26009,-0.87831 z m 17.49018,-26.08639 c 5.23015,-2.64181 7.96765,-10.67668 5.3468,-15.6934 -2.22334,-4.2558 -6.77722,-7.18857 -11.16212,-7.18857 -3.10627,0 -8.01007,2.55763 -10.06212,5.24802 -2.28998,3.00231 -2.48041,10.09481 -0.36422,13.56545 3.17506,5.20725 10.40279,7.01779 16.24166,4.0685 z"
         id="path7064" />
      <path
         style="fill:#0891b2;fill-opacity:0;stroke:none;stroke-width:2.66358;stroke-opacity:1"
         d="M 264.98177,530.02314 C 232.5244,525.99011 209.10464,519.2664 182.52734,506.35084 157.32601,494.10395 139.4064,481.00252 118.63371,459.63679 98.10605,438.52307 85.832409,421.2833 73.341844,396.01903 61.567245,372.20292 53.017652,344.62778 49.732183,319.8704 48.318756,309.21964 47.389861,287.71272 47.818085,275.55286 49.392178,230.85486 65.063095,185.4184 91.812418,147.99514 105.57257,128.7442 126.82876,107.01298 145.51698,93.090407 181.18842,66.515463 222.88577,50.622294 264.27704,47.824369 c 14.67263,-0.991826 47.60726,-0.356234 57.4362,1.108438 24.71407,3.682796 41.3844,8.886179 64.83597,20.237534 20.23091,9.792445 32.5162,17.3844 47.2175,29.179038 33.85754,27.163421 58.69035,60.842571 74.53841,101.091691 25.70773,65.28959 21.69185,135.39045 -11.50618,200.85055 -14.76215,29.1081 -40.11471,60.25085 -66.07419,81.16465 -18.45555,14.8684 -44.57449,29.12804 -68.69829,37.50584 -27.85331,9.67301 -69.76774,14.45036 -97.04469,11.06103 z m 37.3911,-54.61512 c 9.823,-4.83825 18.68751,-15.33602 21.77308,-25.78469 0.67064,-2.27099 1.14534,-6.41479 1.14636,-10.00682 0.004,-11.61702 -3.54464,-20.25012 -11.69031,-28.44594 -15.70742,-15.80411 -40.73173,-16.31226 -56.52142,-1.14774 -8.39005,8.05787 -12.29893,17.1036 -12.39204,28.67705 -0.0615,7.64439 0.86684,11.49625 4.54217,18.84647 2.40591,4.81151 9.85967,12.93595 14.74307,16.06961 6.36039,4.08146 10.25489,4.90965 22.19009,4.71888 l 10.61102,-0.16959 z m 163.10708,-98.25834 v -14.68507 l -26.95626,-0.46581 c -14.82594,-0.2562 -37.13444,-0.46627 -49.57445,-0.46682 -12.44001,-5.4e-4 -25.99742,-0.20775 -30.12758,-0.46046 l -7.50939,-0.45947 v -23.14928 -23.14928 l 28.01337,-0.002 c 15.40735,-10e-4 33.9596,-0.2098 41.22722,-0.46379 l 13.21385,-0.4618 v -36.8164 -36.81639 l -8.63305,-0.40237 c -4.74818,-0.22131 -23.02944,-0.58017 -40.62502,-0.79749 -17.59559,-0.21731 -32.26296,-0.56259 -32.59417,-0.76729 -0.33121,-0.20458 -0.6022,-9.98889 -0.6022,-21.74281 v -21.37074 l 1.58566,-0.41739 c 0.87212,-0.22956 21.40644,-0.59247 45.63184,-0.80648 24.22539,-0.214 49.19957,-0.57262 55.49818,-0.79694 l 11.452,-0.40784 V 177.87152 163.49939 H 393.5966 321.71324 v 52.03695 52.03694 l 21.67072,0.46485 c 11.9189,0.25568 28.17193,0.46768 36.11786,0.47111 7.94593,0.004 16.58779,0.20842 19.20413,0.45551 l 4.75699,0.44927 v 7.22459 7.22458 l -10.04253,0.40653 c -5.52339,0.22359 -23.20352,0.56727 -39.28918,0.76373 -16.08566,0.19646 -29.91914,0.54844 -30.74107,0.78217 -1.19126,0.33877 -1.58315,1.16368 -1.9319,4.06653 -0.24063,2.00285 -0.44026,25.06665 -0.44363,51.2529 -0.006,49.37908 -0.0164,49.19948 2.81283,50.21063 0.58141,0.20779 32.69107,0.40283 71.3548,0.43343 l 70.29769,0.0556 z M 198.28574,389.0406 c 26.44454,-6.67623 42.93893,-15.83511 59.37958,-32.97186 11.7336,-12.23039 20.4505,-26.90725 25.97758,-43.73906 4.11936,-12.54488 4.53021,-15.55335 4.54119,-33.25313 0.0111,-17.82549 -0.55528,-21.7113 -5.25883,-36.08361 -5.98895,-18.3 -14.44382,-32.04832 -28.11254,-45.71335 -9.78672,-9.78407 -16.39865,-14.55315 -28.59853,-20.62767 -15.4221,-7.67893 -29.03366,-11.26569 -47.21054,-12.44035 -11.97863,-0.77411 -55.13861,-0.94799 -63.33475,-0.25516 l -5.40645,0.45701 0.19077,112.67934 c 0.16803,99.25328 0.31672,112.75895 1.24787,113.3475 0.63241,0.39973 16.57523,0.67251 39.68278,0.67896 l 38.62567,0.0108 z M 298.55081,160.01352 c 5.11572,-1.91618 12.99661,-7.46266 16.7547,-11.79178 5.47226,-6.30373 10.6503,-19.1705 10.62575,-26.40366 -0.0161,-4.75599 -1.90768,-11.71167 -4.76353,-17.51674 -3.62749,-7.37357 -11.18116,-14.908509 -18.94242,-18.895446 l -5.74551,-2.951459 h -11.41297 -11.41297 l -5.74552,2.978886 c -7.21644,3.741513 -15.97336,12.144523 -19.73326,18.935739 l -2.57362,4.64853 0.0168,11.56046 c 0.009,6.35826 0.29502,12.75876 0.63506,14.22334 1.63977,7.06276 12.91198,20.0217 20.57375,23.65232 6.77251,3.20924 9.14845,3.62574 18.94449,3.32095 6.73547,-0.20957 9.74381,-0.62415 12.77924,-1.76114 z"
         id="path8565" />
      <path
         style="fill:#0891b2;fill-opacity:0;stroke:none;stroke-width:2.66358;stroke-opacity:1"
         d="M 264.98177,530.02314 C 232.5244,525.99011 209.10464,519.2664 182.52734,506.35084 157.32601,494.10395 139.4064,481.00252 118.63371,459.63679 98.10605,438.52307 85.832409,421.2833 73.341844,396.01903 61.567245,372.20292 53.017652,344.62778 49.732183,319.8704 48.318756,309.21964 47.389861,287.71272 47.818085,275.55286 49.392178,230.85486 65.063095,185.4184 91.812418,147.99514 105.57257,128.7442 126.82876,107.01298 145.51698,93.090407 181.18842,66.515463 222.88577,50.622294 264.27704,47.824369 c 14.67263,-0.991826 47.60726,-0.356234 57.4362,1.108438 24.71407,3.682796 41.3844,8.886179 64.83597,20.237534 20.23091,9.792445 32.5162,17.3844 47.2175,29.179038 33.85754,27.163421 58.69035,60.842571 74.53841,101.091691 25.70773,65.28959 21.69185,135.39045 -11.50618,200.85055 -14.76215,29.1081 -40.11471,60.25085 -66.07419,81.16465 -18.45555,14.8684 -44.57449,29.12804 -68.69829,37.50584 -27.85331,9.67301 -69.76774,14.45036 -97.04469,11.06103 z m 37.3911,-54.61512 c 9.823,-4.83825 18.68751,-15.33602 21.77308,-25.78469 0.67064,-2.27099 1.14534,-6.41479 1.14636,-10.00682 0.004,-11.61702 -3.54464,-20.25012 -11.69031,-28.44594 -15.70742,-15.80411 -40.73173,-16.31226 -56.52142,-1.14774 -8.39005,8.05787 -12.29893,17.1036 -12.39204,28.67705 -0.0615,7.64439 0.86684,11.49625 4.54217,18.84647 2.40591,4.81151 9.85967,12.93595 14.74307,16.06961 6.36039,4.08146 10.25489,4.90965 22.19009,4.71888 l 10.61102,-0.16959 z m 163.10708,-98.25834 v -14.68507 l -26.95626,-0.46581 c -14.82594,-0.2562 -37.13444,-0.46627 -49.57445,-0.46682 -12.44001,-5.4e-4 -25.99742,-0.20775 -30.12758,-0.46046 l -7.50939,-0.45947 v -23.14928 -23.14928 l 28.01337,-0.002 c 15.40735,-10e-4 33.9596,-0.2098 41.22722,-0.46379 l 13.21385,-0.4618 v -36.8164 -36.81639 l -8.63305,-0.40237 c -4.74818,-0.22131 -23.02944,-0.58017 -40.62502,-0.79749 -17.59559,-0.21731 -32.26296,-0.56259 -32.59417,-0.76729 -0.33121,-0.20458 -0.6022,-9.98889 -0.6022,-21.74281 v -21.37074 l 1.58566,-0.41739 c 0.87212,-0.22956 21.40644,-0.59247 45.63184,-0.80648 24.22539,-0.214 49.19957,-0.57262 55.49818,-0.79694 l 11.452,-0.40784 V 177.87152 163.49939 H 393.5966 321.71324 v 52.03695 52.03694 l 21.67072,0.46485 c 11.9189,0.25568 28.17193,0.46768 36.11786,0.47111 7.94593,0.004 16.58779,0.20842 19.20413,0.45551 l 4.75699,0.44927 v 7.22459 7.22458 l -10.04253,0.40653 c -5.52339,0.22359 -23.20352,0.56727 -39.28918,0.76373 -16.08566,0.19646 -29.91914,0.54844 -30.74107,0.78217 -1.19126,0.33877 -1.58315,1.16368 -1.9319,4.06653 -0.24063,2.00285 -0.44026,25.06665 -0.44363,51.2529 -0.006,49.37908 -0.0164,49.19948 2.81283,50.21063 0.58141,0.20779 32.69107,0.40283 71.3548,0.43343 l 70.29769,0.0556 z M 198.28574,389.0406 c 26.44454,-6.67623 42.93893,-15.83511 59.37958,-32.97186 11.7336,-12.23039 20.4505,-26.90725 25.97758,-43.73906 4.11936,-12.54488 4.53021,-15.55335 4.54119,-33.25313 0.0111,-17.82549 -0.55528,-21.7113 -5.25883,-36.08361 -5.98895,-18.3 -14.44382,-32.04832 -28.11254,-45.71335 -9.78672,-9.78407 -16.39865,-14.55315 -28.59853,-20.62767 -15.4221,-7.67893 -29.03366,-11.26569 -47.21054,-12.44035 -11.97863,-0.77411 -55.13861,-0.94799 -63.33475,-0.25516 l -5.40645,0.45701 0.19077,112.67934 c 0.16803,99.25328 0.31672,112.75895 1.24787,113.3475 0.63241,0.39973 16.57523,0.67251 39.68278,0.67896 l 38.62567,0.0108 z M 298.55081,160.01352 c 5.11572,-1.91618 12.99661,-7.46266 16.7547,-11.79178 5.47226,-6.30373 10.6503,-19.1705 10.62575,-26.40366 -0.0161,-4.75599 -1.90768,-11.71167 -4.76353,-17.51674 -3.62749,-7.37357 -11.18116,-14.908509 -18.94242,-18.895446 l -5.74551,-2.951459 h -11.41297 -11.41297 l -5.74552,2.978886 c -7.21644,3.741513 -15.97336,12.144523 -19.73326,18.935739 l -2.57362,4.64853 0.0168,11.56046 c 0.009,6.35826 0.29502,12.75876 0.63506,14.22334 1.63977,7.06276 12.91198,20.0217 20.57375,23.65232 6.77251,3.20924 9.14845,3.62574 18.94449,3.32095 6.73547,-0.20957 9.74381,-0.62415 12.77924,-1.76114 z"
         id="path8966" />
      <path
         style="fill:#ffffff;fill-opacity:1;stroke:none;stroke-width:2.66358;stroke-opacity:1"
         d="M 264.98177,530.02314 C 232.5244,525.99011 209.10464,519.2664 182.52734,506.35084 157.32601,494.10395 139.4064,481.00252 118.63371,459.63679 98.10605,438.52307 85.832409,421.2833 73.341844,396.01903 61.567245,372.20292 53.017652,344.62778 49.732183,319.8704 48.318756,309.21964 47.389861,287.71272 47.818085,275.55286 49.392178,230.85486 65.063095,185.4184 91.812418,147.99514 105.57257,128.7442 126.82876,107.01298 145.51698,93.090407 181.18842,66.515463 222.88577,50.622294 264.27704,47.824369 c 14.67263,-0.991826 47.60726,-0.356234 57.4362,1.108438 24.71407,3.682796 41.3844,8.886179 64.83597,20.237534 20.23091,9.792445 32.5162,17.3844 47.2175,29.179038 33.85754,27.163421 58.69035,60.842571 74.53841,101.091691 25.70773,65.28959 21.69185,135.39045 -11.50618,200.85055 -14.76215,29.1081 -40.11471,60.25085 -66.07419,81.16465 -18.45555,14.8684 -44.57449,29.12804 -68.69829,37.50584 -27.85331,9.67301 -69.76774,14.45036 -97.04469,11.06103 z m 37.3911,-54.61512 c 9.823,-4.83825 18.68751,-15.33602 21.77308,-25.78469 0.67064,-2.27099 1.14534,-6.41479 1.14636,-10.00682 0.004,-11.61702 -3.54464,-20.25012 -11.69031,-28.44594 -15.70742,-15.80411 -40.73173,-16.31226 -56.52142,-1.14774 -8.39005,8.05787 -12.29893,17.1036 -12.39204,28.67705 -0.0615,7.64439 0.86684,11.49625 4.54217,18.84647 2.40591,4.81151 9.85967,12.93595 14.74307,16.06961 6.36039,4.08146 10.25489,4.90965 22.19009,4.71888 l 10.61102,-0.16959 z m 163.10708,-98.25834 v -14.68507 l -26.95626,-0.46581 c -14.82594,-0.2562 -37.13444,-0.46627 -49.57445,-0.46682 -12.44001,-5.4e-4 -25.99742,-0.20775 -30.12758,-0.46046 l -7.50939,-0.45947 v -23.14928 -23.14928 l 28.01337,-0.002 c 15.40735,-10e-4 33.9596,-0.2098 41.22722,-0.46379 l 13.21385,-0.4618 v -36.8164 -36.81639 l -8.63305,-0.40237 c -4.74818,-0.22131 -23.02944,-0.58017 -40.62502,-0.79749 -17.59559,-0.21731 -32.26296,-0.56259 -32.59417,-0.76729 -0.33121,-0.20458 -0.6022,-9.98889 -0.6022,-21.74281 v -21.37074 l 1.58566,-0.41739 c 0.87212,-0.22956 21.40644,-0.59247 45.63184,-0.80648 24.22539,-0.214 49.19957,-0.57262 55.49818,-0.79694 l 11.452,-0.40784 V 177.87152 163.49939 H 393.5966 321.71324 v 52.03695 52.03694 l 21.67072,0.46485 c 11.9189,0.25568 28.17193,0.46768 36.11786,0.47111 7.94593,0.004 16.58779,0.20842 19.20413,0.45551 l 4.75699,0.44927 v 7.22459 7.22458 l -10.04253,0.40653 c -5.52339,0.22359 -23.20352,0.56727 -39.28918,0.76373 -16.08566,0.19646 -29.91914,0.54844 -30.74107,0.78217 -1.19126,0.33877 -1.58315,1.16368 -1.9319,4.06653 -0.24063,2.00285 -0.44026,25.06665 -0.44363,51.2529 -0.006,49.37908 -0.0164,49.19948 2.81283,50.21063 0.58141,0.20779 32.69107,0.40283 71.3548,0.43343 l 70.29769,0.0556 z M 198.28574,389.0406 c 26.44454,-6.67623 42.93893,-15.83511 59.37958,-32.97186 11.7336,-12.23039 20.4505,-26.90725 25.97758,-43.73906 4.11936,-12.54488 4.53021,-15.55335 4.54119,-33.25313 0.0111,-17.82549 -0.55528,-21.7113 -5.25883,-36.08361 -5.98895,-18.3 -14.44382,-32.04832 -28.11254,-45.71335 -9.78672,-9.78407 -16.39865,-14.55315 -28.59853,-20.62767 -15.4221,-7.67893 -29.03366,-11.26569 -47.21054,-12.44035 -11.97863,-0.77411 -55.13861,-0.94799 -63.33475,-0.25516 l -5.40645,0.45701 0.19077,112.67934 c 0.16803,99.25328 0.31672,112.75895 1.24787,113.3475 0.63241,0.39973 16.57523,0.67251 39.68278,0.67896 l 38.62567,0.0108 z M 298.55081,160.01352 c 5.11572,-1.91618 12.99661,-7.46266 16.7547,-11.79178 5.47226,-6.30373 10.6503,-19.1705 10.62575,-26.40366 -0.0161,-4.75599 -1.90768,-11.71167 -4.76353,-17.51674 -3.62749,-7.37357 -11.18116,-14.908509 -18.94242,-18.895446 l -5.74551,-2.951459 h -11.41297 -11.41297 l -5.74552,2.978886 c -7.21644,3.741513 -15.97336,12.144523 -19.73326,18.935739 l -2.57362,4.64853 0.0168,11.56046 c 0.009,6.35826 0.29502,12.75876 0.63506,14.22334 1.63977,7.06276 12.91198,20.0217 20.57375,23.65232 6.77251,3.20924 9.14845,3.62574 18.94449,3.32095 6.73547,-0.20957 9.74381,-0.62415 12.77924,-1.76114 z"
         id="path9005" />
      <path
         style="fill:#ffffff;fill-opacity:1;stroke:none;stroke-width:2.66358;stroke-opacity:1"
         d="m 281.55328,131.77595 c -7.05824,-1.67931 -9.13734,-12.11319 -3.5309,-17.71963 1.68469,-1.6847 2.58229,-2.00286 5.65044,-2.00286 6.98792,0 11.25253,3.70603 11.25772,9.78316 0.006,6.96377 -6.27356,11.62945 -13.37726,9.93933 z"
         id="path10820" />
      <path
         style="fill:#ffffff;fill-opacity:1;stroke:none;stroke-width:2.66358;stroke-opacity:1"
         d="m 140.59538,277.66707 v -83.86391 l 5.8141,-0.0614 c 17.04136,-0.18012 36.80547,0.2037 41.91512,0.81398 7.80373,0.93205 13.72183,2.83502 23.80177,7.65349 17.46412,8.34829 30.65858,21.45063 38.88752,38.61602 9.99563,20.85064 10.35531,50.60459 0.8729,72.2094 -9.19652,20.95343 -27.50236,37.54068 -50.11905,45.41374 -6.39476,2.22608 -17.18416,2.98947 -43.02533,3.04421 l -18.14703,0.0384 z"
         id="path10859" />
    </g>
    <path
       style="fill:#ffffff;fill-opacity:1;stroke:none;stroke-width:2.66358;stroke-opacity:1"
       d="m 279.35695,448.02362 c -6.59111,-4.40315 -6.21151,-13.63706 0.72766,-17.70052 5.03962,-2.95112 11.42226,-0.76892 14.13374,4.83227 1.2784,2.6408 1.38929,3.50629 0.75236,5.8717 -2.0206,7.50392 -9.7019,10.94593 -15.61376,6.99655 z"
       id="path10898" />
    <path
       style="fill:#155e75;stroke-width:2.66358;fill-opacity:1"
       d="M 245.95383,536.26889 C 195.19773,531.80047 145.38068,512.92914 106.78773,483.55104 98.091927,476.93154 72.366418,451.78383 64.510716,442.22358 45.877597,419.5474 31.814075,396.71784 21.965499,373.15918 11.823243,348.89801 4.4958963,321.46868 1.7274765,297.39976 0.17301865,283.88515 0.6103054,241.98801 2.4262457,230.44958 8.1280672,194.22035 18.38485,163.82443 34.598654,135.10679 39.899539,125.71795 51.909694,107.81736 58.027252,100.18754 103.36101,43.647223 163.20816,9.8235947 232.21142,1.7444074 c 13.34066,-1.56197907 47.95515,-1.56142423 62.61132,10e-4 60.01627,6.3980605 112.18325,31.5133236 155.21579,74.7270686 41.56941,41.744454 68.67584,95.782244 77.23799,153.977104 1.42481,9.68407 1.60845,13.64209 1.61854,34.88457 0.009,19.29439 -0.23902,25.81408 -1.27431,33.47509 -6.78339,50.19597 -25.10766,95.23579 -54.57916,134.15191 -19.58942,25.86716 -46.42888,50.42266 -71.98246,65.85697 -9.93574,6.00117 -32.35765,16.99121 -41.99473,20.58361 -14.63847,5.45677 -35.22858,10.8725 -52.15067,13.71697 -18.60743,3.12776 -45.45541,4.51517 -60.9599,3.15019 z m 39.46537,-26.06988 c 32.24629,-2.83805 56.86466,-9.70667 84.64427,-23.61608 24.49766,-12.26613 40.7788,-24.19352 60.19316,-44.09689 29.73382,-30.48275 47.92614,-60.27147 61.35409,-100.46324 8.47646,-25.37125 12.28295,-49.16343 12.26937,-76.68865 -0.019,-38.44197 -8.29918,-72.73242 -26.17269,-108.38783 C 459.35244,120.33047 430.72655,88.112022 396.06319,65.055719 371.97406,49.03286 341.31268,35.804505 315.72297,30.394231 c -16.91506,-3.576245 -22.03085,-3.96903 -51.09356,-3.922919 -31.59423,0.05013 -38.13382,0.734922 -59.92381,6.274919 -28.62249,7.277127 -57.46617,21.189579 -81.72868,39.420985 -18.70209,14.053175 -40.431227,36.354064 -53.723631,55.137214 -27.164098,38.38491 -42.382083,83.31283 -43.650204,128.86811 -0.718605,25.81477 1.466129,47.88964 6.834147,69.05321 12.596257,49.66111 37.074036,90.47849 75.362038,125.66828 32.45352,29.82743 76.53557,50.51291 122.65031,57.55358 21.08834,3.21971 33.71536,3.62203 54.96962,1.7514 z"
       id="path985"
       transform="translate(21.635803,20.534971)" />
    <path
       style="fill:#155e75;fill-opacity:1;stroke-width:2.66358"
       d="m 302.33293,369.78269 c -1.68435,-0.85001 -1.78167,-1.252 -2.21252,-9.13957 -0.75773,-13.87193 0.3168,-93.34422 1.27504,-94.30168 0.70979,-0.70922 40.75808,-1.78984 75.11124,-2.02674 l 5.46172,-0.0377 v -8.01641 -8.0164 l -2.20231,-0.44046 c -1.21127,-0.24225 -7.95033,-0.44093 -14.97569,-0.44151 -7.02537,-5.7e-4 -24.42801,-0.21058 -38.67254,-0.46668 l -25.89915,-0.46566 v -51.68397 -51.68398 h 71.53098 71.53099 v 14.01837 14.01837 l -12.86149,0.40991 c -7.07381,0.22545 -32.45676,0.56589 -56.40655,0.75652 -23.94979,0.19063 -43.84985,0.53497 -44.22236,0.76519 -0.40993,0.25336 -0.67728,9.14515 -0.67728,22.52556 v 22.10697 l 3.69987,0.38015 c 2.03494,0.20909 18.76367,0.56073 37.17497,0.78144 18.4113,0.2207 35.29861,0.58911 37.52734,0.81868 l 4.05225,0.41742 v 36.09095 36.09095 l -14.91315,0.46444 c -8.20222,0.25544 -26.75447,0.46444 -41.22721,0.46444 h -26.31407 v 23.84839 23.84841 l 17.02784,0.46508 c 9.36532,0.2558 33.10373,0.46509 52.75203,0.46509 19.6483,0 37.6735,0.20375 40.056,0.45277 l 4.33181,0.45276 v 13.99438 13.99438 l -69.59296,-0.0104 c -54.59896,-0.008 -69.97255,-0.20195 -71.3548,-0.89951 z"
       id="path1061"
       transform="translate(21.635803,20.534971)" />
    <path
       style="fill:#155e75;fill-opacity:1;stroke-width:2.66358"
       d="m 252.48292,139.91194 c -8.54896,-2.41959 -15.61725,-7.71676 -21.75444,-16.3034 -5.6194,-7.86218 -5.88384,-8.88711 -5.90134,-22.87235 l -0.0155,-12.374392 2.40344,-3.991308 c 5.16752,-8.581527 12.17787,-15.180307 20.65666,-19.443943 4.3702,-2.197599 4.42163,-2.204797 15.75356,-2.204797 h 11.36905 l 5.03622,2.60973 c 3.42378,1.77417 6.86244,4.425405 10.74009,8.280681 6.72574,6.686923 10.24036,13.081521 12.07497,21.969513 1.10886,5.372036 1.10794,6.069836 -0.0149,11.244036 -1.48967,6.86459 -5.80651,15.70197 -10.02401,20.52105 -3.97589,4.54301 -12.58581,10.384 -17.46284,11.84681 -5.37584,1.61244 -18.2704,2.01763 -22.86099,0.71837 z m 16.55755,-29.26415 c 6.54447,-3.99021 6.83414,-13.903644 0.52701,-18.036235 -2.46214,-1.613257 -6.95379,-2.358247 -10.0322,-1.663951 -3.63029,0.818763 -5.70359,3.237883 -6.65258,7.762232 -1.09838,5.236594 0.18875,9.467944 3.57025,11.736874 3.16564,2.1241 9.27349,2.22167 12.58752,0.20108 z"
       id="path1100"
       transform="translate(21.635803,20.534971)" />
    <path
       style="fill:#155e75;fill-opacity:1;stroke-width:2.66358"
       d="M 90.911301,369.29845 C 89.983184,368.71212 89.77873,354.99404 89.235754,256.87584 88.895612,195.4107 88.843399,144.8956 89.119725,144.62006 c 0.276327,-0.27554 16.886945,-0.48768 36.912485,-0.47141 40.99823,0.0333 45.22961,0.41946 61.07593,5.57394 35.54598,11.56238 60.83527,36.48485 73.22816,72.16599 4.6175,13.29453 5.57484,19.60967 5.57115,36.75055 -0.004,16.82273 -0.58701,20.87574 -4.85411,33.72295 -8.05987,24.26633 -25.30467,46.55932 -46.52956,60.1505 -9.25322,5.92522 -23.41057,11.59219 -38.43731,15.38586 l -8.2762,2.08941 -37.92093,-0.0108 c -22.6493,-0.006 -38.346652,-0.27973 -38.978039,-0.67861 z m 88.444719,-30.2223 c 19.43046,-6.41758 37.5481,-20.88266 47.34523,-37.80033 10.99804,-18.9914 14.15735,-44.97511 8.25947,-67.92998 -2.03754,-7.93022 -7.96684,-20.41878 -12.584,-26.50501 -4.7543,-6.26701 -14.15357,-15.45719 -19.76176,-19.32218 -8.11308,-5.59126 -19.66334,-10.84766 -28.89685,-13.15064 -5.0979,-1.27149 -39.09031,-2.64134 -48.80316,-1.96669 l -6.51884,0.45279 v 84.15698 84.15699 l 28.01337,-0.23129 c 27.05711,-0.22339 28.18176,-0.28691 32.94654,-1.86064 z"
       id="path1139"
       transform="translate(21.635803,20.534971)" />
    <path
       style="fill:#155e75;fill-opacity:1;stroke-width:2.66358"
       d="m 252.02709,456.62338 c -9.01256,-2.22054 -19.3808,-11.25526 -24.20842,-21.09482 -7.98483,-16.27449 -4.65901,-33.42868 8.91722,-45.99399 8.08389,-7.48195 17.45392,-10.81341 28.59826,-10.16793 21.0422,1.21876 37.75502,18.66936 37.68629,39.34991 -0.0224,6.75494 -0.89479,10.36938 -4.05753,16.81201 -3.67512,7.48636 -11.25313,15.04692 -18.7897,18.74644 l -5.59837,2.74809 -9.90589,0.13719 c -5.44823,0.0755 -11.13708,-0.16615 -12.64186,-0.5369 z m 16.26085,-28.10472 c 3.72709,-1.69211 5.85544,-5.52902 5.85544,-10.55597 0,-2.92623 -0.36584,-3.94392 -2.14706,-5.97261 -3.01929,-3.43879 -7.63172,-5.11155 -11.17075,-4.05123 -5.39717,1.61703 -8.52909,5.66669 -8.52909,11.02835 0,8.45109 7.95267,13.2011 15.99146,9.55146 z"
       id="path1178"
       transform="translate(21.635803,20.534971)" />
  </g>
</svg>
